<?xml version="1.0" encoding="UTF-8" standalone="no"?>
<!-- Created with Inkscape (http://www.inkscape.org/) -->

<svg
   xmlns:dc="http://purl.org/dc/elements/1.1/"
   xmlns:cc="http://creativecommons.org/ns#"
   xmlns:rdf="http://www.w3.org/1999/02/22-rdf-syntax-ns#"
   xmlns:svg="http://www.w3.org/2000/svg"
   xmlns="http://www.w3.org/2000/svg"
   xmlns:sodipodi="http://sodipodi.sourceforge.net/DTD/sodipodi-0.dtd"
   xmlns:inkscape="http://www.inkscape.org/namespaces/inkscape"
   width="551.55017mm"
   height="551.55017mm"
   viewBox="0 0 551.55017 551.55017"
   version="1.1"
   id="svg832"
   inkscape:version="0.92.4 (5da689c313, 2019-01-14)"
   sodipodi:docname="nubank.svg">
  <defs
     id="defs826" />
  <sodipodi:namedview
     id="base"
     pagecolor="#ffffff"
     bordercolor="#666666"
     borderopacity="1.0"
     inkscape:pageopacity="0.0"
     inkscape:pageshadow="2"
     inkscape:zoom="0.24748737"
     inkscape:cx="-270.30481"
     inkscape:cy="930.98837"
     inkscape:document-units="mm"
     inkscape:current-layer="layer1"
     showgrid="false"
     fit-margin-top="0"
     fit-margin-left="0"
     fit-margin-right="0"
     fit-margin-bottom="0"
     inkscape:window-width="1920"
     inkscape:window-height="1017"
     inkscape:window-x="-8"
     inkscape:window-y="-8"
     inkscape:window-maximized="1" />
  <metadata
     id="metadata829">
    <rdf:RDF>
      <cc:Work
         rdf:about="">
        <dc:format>image/svg+xml</dc:format>
        <dc:type
           rdf:resource="http://purl.org/dc/dcmitype/StillImage" />
        <dc:title></dc:title>
      </cc:Work>
    </rdf:RDF>
  </metadata>
  <g
     inkscape:label="Camada 1"
     inkscape:groupmode="layer"
     id="layer1"
     transform="translate(169.94176,194.66322)">
    <path
       inkscape:connector-curvature="0"
       d="m 363.95473,166.87621 c 0,17.16828 -20.48177,38.26642 -37.14144,38.26642 h -15.16478 c 0.0151,-105.05165 0.0151,-222.825383 0,-243.730933 -0.0257,-2.603738 2.06626,-4.733581 4.66966,-4.75443 h 42.94378 c 2.58143,0 4.69278,2.165297 4.69278,4.79298 z m -69.98311,75.1305 c 0,10.86495 -5.31694,29.0658 -40.93263,29.0658 -69.01987,0 -111.38577,-54.07083 -111.38577,-92.85354 0,0 -0.077,-125.394656 -0.077,-216.768723 -0.0299,-2.608395 2.06917,-4.742127 4.67735,-4.75443 h 42.99776 c 2.58138,0 4.70043,2.149898 4.70043,4.7929 V 162.96939 c 0,33.28861 26.3458,60.28937 58.82526,60.28937 h 41.21777 z m 68.54986,-303.419268 h -49.47057 c -10.51827,0 -19.08699,8.784458 -19.08699,19.564774 V 205.16578 h -41.21774 c -22.73949,0 -41.17147,-18.89435 -41.17147,-42.19639 V -41.847784 c 0,-10.803414 -8.55332,-19.572473 -19.09474,-19.572473 h -49.49365 c -10.5414,0 -19.09472,8.769059 -19.11011,19.572473 -0.023,89.308938 0.077,220.074454 0.077,220.074454 0.008,68.73476 75.17675,110.93881 129.07034,110.93881 36.1474,0 58.60177,-18.10837 58.60177,-47.2821 v -18.62462 h 15.18026 c 26.63084,0 54.8028,-28.97341 54.8028,-56.38255 V -41.847784 c 0.023,-10.803414 -8.53017,-19.572473 -19.08694,-19.572473 z M 70.13674,200.77354 c 0.0257,2.60448 -2.07225,4.73361 -4.67733,4.7467 H 22.46165 c -2.61501,0 -4.71339,-2.17069 -4.70051,-4.78523 V -0.74566305 c 0,-33.28860495 -26.3534198,-60.28930795 -58.82521,-60.28930795 h -41.217739 v -18.747925 c 0,-10.841937 5.316908,-29.065884 40.932629,-29.065884 69.01987,0 111.40115,54.070835 111.40115,92.853567 0,0 0.0771,126.003443 0.0771,216.768753 z m -217.73195,4.78523 c -2.61559,-0.0771 -4.70736,-2.18536 -4.67736,-4.80066 V -4.6293231 c 0,-17.1682799 20.48172,-38.2972729 37.13369,-38.2972729 h 15.180232 c -0.02302,150.438156 -0.02302,227.418016 0,243.677006 0.02566,2.6153 -2.069522,4.75904 -4.685052,4.7929 h -42.94381 z M 87.69801,-15.995213 c 0.0079,-68.742456 -75.1613,-110.946537 -129.04719,-110.946537 -36.155101,0 -58.609468,18.10837 -58.609468,47.282123 v 18.624656 h -15.172532 c -26.63857,0 -54.81058,28.973357 -54.81058,56.3825479 V 204.0716 c 0,10.80333 8.55332,19.57239 19.08699,19.57239 h 49.46287 c 0.30822,0 0.57018,-0.0847 0.87839,-0.0847 10.109892,-0.48546 18.208603,-9.00025 18.208603,-19.48767 V -42.942048 h 41.225387 c 22.73179,0 41.17152019,18.894375 41.17152019,42.19638495 V 204.0716 c 0,10.80333 8.55332001,19.57239 19.08698981,19.57239 h 49.50135 c 10.54137,0 19.08701,-8.74591 19.08701,-19.57239 0.0387,-90.97339 -0.0616,-220.074513 -0.0616,-220.074513 z"
       id="path2-0-8"
       style="fill:#ffffff;fill-opacity:1;stroke-width:7.70568991"
       sodipodi:nodetypes="sscccssscscccsssscccsscsssssccsscsscccccccsscsscccccssccccccsscssssscscsssssccc"
       inkscape:export-filename="G:\Users\suitedoalex\sites\nubank-logo-12.png"
       inkscape:export-xdpi="4.6874995"
       inkscape:export-ydpi="4.6874995" />
  </g>
</svg>
