<svg xmlns="http://www.w3.org/2000/svg" viewBox="0 0 420 420"><g fill-rule="evenodd"><path d="M81.079 188.304l46.194-.65 28.194 41.639 5.421-.217.434 1.952 52.484.65 21.47 31.881c1.555 2.869 4.364 5.617 2.591 9.76l-101.485.216c.207-5.807-1.154-9.655-3.253-12.579L87.15 192.208z" fill="#6dbbfd" stroke="#6dbbfd" stroke-width=".752"/><path d="M237.445 273.969l-49.664 78.508c-1.127 2.577-2.87 2.693-4.555 3.036l-104.099-.65 1.084-2.603 6.507-.433 47.929-71.786c1.725-4.056 1.444-4.768 1.518-6.072zM394.108 273.837l-49.664 78.508c-1.127 2.577-2.87 2.693-4.554 3.036l-104.1-.65 1.085-2.603 6.506-.433 47.929-71.786c1.726-4.056 1.444-4.768 1.518-6.072z" fill="#016bbf" stroke="#016bbf" stroke-width=".752"/><path d="M283.903 187.495l55.952 1.338c13.64 20.294 13.891 20.296 30.581 42.687l21.47 31.88c1.555 2.87 4.364 5.617 2.592 9.76l-101.486.217c.207-5.807-1.153-9.655-3.253-12.579-16.838-23.183-31.524-44.214-50.514-69.55 13.572-5.468 30.045-3.224 44.658-3.753z" fill="#6dbbfd" stroke="#6dbbfd" stroke-width=".752"/><path d="M208.968 64.515l55.14 1.337c13.442 20.296 13.69 20.298 30.138 42.691l21.159 31.883c1.532 2.869 4.3 5.617 2.554 9.76l-100.014.217c.204-5.807-1.137-9.656-3.206-12.58-16.594-23.184-31.067-44.217-49.782-69.554 13.376-5.469 29.61-3.225 44.011-3.754z" fill="#6dbbfd" stroke="#6dbbfd" stroke-width=".746"/><path d="M317.504 150.898l-23.111 36.284c-18.678 1.253-47.522-2.116-55.494 4.002L213.786 230.9l-51.891-.53-.234-1.267c1.425-.172 2.41-.34 3.468-.7l52.626-77.205z" fill="#016bbf" stroke="#016bbf" stroke-width=".752"/></g></svg>