<svg xmlns="http://www.w3.org/2000/svg" xmlns:xlink="http://www.w3.org/1999/xlink" aria-hidden="true" data-prefix="fas" data-icon="wallet" class="svg-inline--fa fa-wallet fa-w-16" viewBox="0 0 512 512"><defs><linearGradient id="a"><stop offset="0" stop-color="#d58100"/><stop offset="1" stop-color="#673e00"/></linearGradient><linearGradient xlink:href="#a" id="b" x1="89.569" y1="256" x2="133.889" y2="258.169" gradientUnits="userSpaceOnUse"/></defs><path fill="#f7f7f7" d="M0 0h512v512H0z"/><path d="M389.405 172.785H141.579a10.4 10.4 0 01-10.402-10.402 10.4 10.4 0 0110.402-10.402h249.646a10.4 10.4 0 0010.402-10.402c0-17.235-13.971-31.206-31.206-31.206H131.177c-22.982 0-41.608 18.626-41.608 41.608v208.038c0 22.982 18.626 41.608 41.608 41.608h258.228c18.216 0 33.026-13.997 33.026-31.206v-166.43c0-17.21-14.81-31.207-33.026-31.207zM360.019 308.01c-11.487 0-20.803-9.317-20.803-20.804 0-11.488 9.316-20.804 20.803-20.804 11.488 0 20.804 9.316 20.804 20.804 0 11.487-9.316 20.804-20.804 20.804z" fill="url(#b)"/></svg>