<svg xmlns="http://www.w3.org/2000/svg" viewBox="0 0 551.55 551.55"><path fill="#8a05be" d="M0 0h551.55v551.55H0z"/><path d="M458.848 336.604c0 12.176-14.526 27.14-26.342 27.14H421.75c.01-74.508.01-158.04 0-172.867a3.339 3.339 0 013.312-3.372h30.458c1.83 0 3.328 1.536 3.328 3.4zm-49.635 53.286c0 7.706-3.771 20.615-29.032 20.615-48.952 0-79-38.35-79-65.856 0 0-.055-88.937-.055-153.744a3.333 3.333 0 013.317-3.372h30.496c1.831 0 3.334 1.524 3.334 3.399v142.9c0 23.61 18.686 42.761 41.722 42.761h29.234zm48.619-215.2h-35.087c-7.46 0-13.538 6.23-13.538 13.876V363.76h-29.234c-16.128 0-29.2-13.401-29.2-29.928V188.566c0-7.663-6.067-13.882-13.544-13.882h-35.103c-7.477 0-13.543 6.22-13.554 13.882-.016 63.342.055 156.088.055 156.088.006 48.75 53.32 78.684 91.543 78.684 25.638 0 41.564-12.844 41.564-33.535v-13.21H432.5c18.888 0 38.87-20.55 38.87-39.99V188.567c.016-7.663-6.05-13.882-13.538-13.882zM250.457 360.644a3.334 3.334 0 01-3.317 3.367h-30.497c-1.854 0-3.342-1.54-3.333-3.394v-142.9c0-23.61-18.692-42.76-41.722-42.76h-29.234V161.66c0-7.69 3.77-20.615 29.031-20.615 48.953 0 79.012 38.35 79.012 65.857 0 0 .055 89.368.055 153.743zM96.03 364.04c-1.855-.054-3.338-1.55-3.317-3.404V214.963c0-12.177 14.526-27.163 26.337-27.163h10.767c-.017 106.7-.017 161.297 0 172.829a3.367 3.367 0 01-3.323 3.4H96.036zm166.883-157.137c.005-48.756-53.309-78.69-91.528-78.69-25.643 0-41.568 12.844-41.568 33.535v13.21h-10.762c-18.893 0-38.874 20.55-38.874 39.99v148.038c0 7.662 6.066 13.881 13.537 13.881H128.8c.219 0 .404-.06.623-.06 7.17-.344 12.915-6.383 12.915-13.821V187.79h29.239c16.122 0 29.2 13.4 29.2 29.927v145.268c0 7.662 6.067 13.881 13.538 13.881h35.11c7.476 0 13.537-6.203 13.537-13.881.027-64.524-.044-156.089-.044-156.089z" fill="#fff"/></svg>