<svg xmlns="http://www.w3.org/2000/svg" viewBox="0 0 148.602 148.602"><g transform="translate(19.26 -83.743)"><rect width="148.602" height="148.602" x="-19.26" y="83.743" ry="0" fill="#fff22d"/><path d="M12.813 188.612l8.744-5.827 8.744 5.827-17.488 11.661zM96.758 127.993l-8.744 5.826-8.744-5.826 17.488-11.666zM96.758 172.289l-41.973 27.984-41.972-27.984 49.844-33.225 8.745 5.83-40.225 26.816 24.484 16.323 11.365-7.58-8.745-5.83 20.989-13.996z" fill="#33348e"/><path d="M12.813 144.316l41.976-27.977 41.973 27.977-49.845 33.224-8.744-5.83 40.225-26.816-24.485-16.319-11.368 7.579 8.744 5.827-20.988 13.996z" fill="#33348e"/></g></svg>