<svg xmlns="http://www.w3.org/2000/svg" version="1.1" id="Santander" x="0" y="0" xml:space="preserve" viewBox="0 0 55 55"><style type="text/css" id="style2"></style><path d="M37.1 25.85c-.1-1.5-.5-3-1.3-4.3L29 9.65c-.5-.9-.9-1.9-1.1-2.9l-.3.5c-1.7 2.9-1.7 6.6 0 9.5l5.5 9.5c1.7 2.9 1.7 6.6 0 9.5l-.3.5c-.2-1-.6-2-1.1-2.9l-5-8.7-3.2-5.6c-.5-.9-.9-1.9-1.1-2.9l-.3.5c-1.7 2.9-1.7 6.5 0 9.5l5.5 9.5c1.7 2.9 1.7 6.6 0 9.5l-.3.5c-.2-1-.6-2-1.1-2.9l-6.9-11.9c-.9-1.6-1.3-3.4-1.3-5.2-7.3 1.9-12.4 6-12.4 10.7 0 6.6 9.8 11.9 21.9 11.9 12.1 0 21.9-5.3 21.9-11.9.1-4.5-4.9-8.6-12.3-10.5z" id="path856" fill="#ea1d25"/></svg>