<svg xmlns="http://www.w3.org/2000/svg" viewBox="0 0 45 45"><defs><clipPath id="a"><path d="M0 0h36.124v39.042H0z" transform="translate(0 .077)" fill="none"/></clipPath></defs><path d="M16.386 41.335a27.567 27.567 0 012.252-12.945c.591-1.268 1.29-2.025 1.872-2.025a.619.619 0 01.181.027c.362.111.613.548.707 1.231a62.215 62.215 0 001.269 6.481.04.04 0 01-.007.01 36.261 36.261 0 01-6.278 7.219zm15.683-2.072a20.64 20.64 0 01-7.082-8.293c-.468-1.032-.757-2.3-.162-2.75a.714.714 0 01.443-.138 1.726 1.726 0 01.846.279 38.236 38.236 0 005.108 2.615v.006a28.782 28.782 0 01.846 8.275zM11.663 28.574a29.714 29.714 0 01-7.225-.83 28.512 28.512 0 0112.291-6.582 6.393 6.393 0 011.308-.156c.8 0 1.333.231 1.488.651.138.377-.042.867-.508 1.378a65.746 65.746 0 00-4.379 5.426h-.013a40.125 40.125 0 01-2.962.113zm22.144-.809a14.9 14.9 0 01-3.235-.339c-1.234-.275-2-.852-1.956-1.468.028-.37.354-.72.895-.962a38.224 38.224 0 004.954-2.6h.008a20.768 20.768 0 015.717 4.186 17.855 17.855 0 01-6.383 1.183zm-3.884-6.11a.655.655 0 01-.5-.194 1.456 1.456 0 01-.1-1.364 61.749 61.749 0 001.374-6.043h.009a21.074 21.074 0 016.713-2.2 21.854 21.854 0 01-5.738 8.9 3.039 3.039 0 01-1.758.901zm-8.575-3.406a2.834 2.834 0 01-.334-.021 60.931 60.931 0 00-6.755-.388l-.007-.01a32.391 32.391 0 01-5.323-8.59 31.332 31.332 0 016.414 2.312 24.581 24.581 0 015.666 3.75c1.139 1.03 1.629 1.98 1.317 2.53a1.059 1.059 0 01-.978.417zm5.321-.377c-.329 0-.687-.293-1.008-.824a65.969 65.969 0 00-3.74-5.494v-.012a25.767 25.767 0 012.768-8.16 28 28 0 012.975 12.014c-.007 1.458-.365 2.405-.932 2.472a.537.537 0 01-.063.004z" fill="#146e37"/><path d="M4.438 2.979h36.124v39.042H4.438z" fill="none"/><g transform="translate(4.438 2.902)" clip-path="url(#a)"><path d="M18.161 39.119a21.047 21.047 0 01-6.052-.982 36.144 36.144 0 006.266-7.205l.007-.01c.12.468.29 1.04.439 1.545l.069.235c.635 2.147 1.457 4.312 2.178 6.147a15.531 15.531 0 01-2.907.27zm9.6-3.049a28.763 28.763 0 00-.844-8.258.057.057 0 000-.011c.269.116.586.238.892.355.186.071.377.145.553.215a40.779 40.779 0 005.073 1.591 19.058 19.058 0 01-5.671 6.108zM5.206 33.691a19.8 19.8 0 01-5.019-9.114 29.645 29.645 0 007.208.828c.956 0 1.949-.038 2.952-.113h.013c-.281.391-.6.871-.911 1.335l-.257.384c-1.26 1.875-2.526 4-3.985 6.681zM35.861 23.41a20.719 20.719 0 00-5.7-4.164h-.009c.249-.153.533-.34.807-.522.163-.108.329-.218.485-.319a44.825 44.825 0 004.3-3.222 26.424 26.424 0 01.125 8.23zM0 15.462a19.921 19.921 0 014.668-9.356 32.32 32.32 0 005.31 8.571v.005h-.011c-.472 0-1.041.021-1.591.041h-.019l-.429.015c-2.728.103-5.528.427-7.928.723zm26.387-4.553c.079-.471.16-1.059.23-1.579l.023-.169c.293-2.139.445-4.328.566-6.375a18.933 18.933 0 015.887 5.921 21.027 21.027 0 00-6.7 2.2h-.006zm-8.754-2.5a40.158 40.158 0 00-.758-.95c-.159-.2-.322-.4-.474-.586-1.576-1.979-3.325-3.831-4.98-5.538A17.265 17.265 0 0120.393.258a25.743 25.743 0 00-2.758 8.145v.009z" fill="#3fa110"/></g></svg>